<?xml version="1.0" standalone="no"?>
<!DOCTYPE svg PUBLIC "-//W3C//DTD SVG 20010904//EN"
 "http://www.w3.org/TR/2001/REC-SVG-20010904/DTD/svg10.dtd">
<svg version="1.0" xmlns="http://www.w3.org/2000/svg"
 width="805.000000pt" height="805.000000pt" viewBox="0 0 805.000000 805.000000"
 preserveAspectRatio="xMidYMid meet">
<metadata>
Created by potrace 1.11, written by Peter Selinger 2001-2013
</metadata>
<g transform="translate(0.000000,805.000000) scale(0.100000,-0.100000)"
fill="#000000" stroke="none">
<path d="M5220 6004 c-604 -55 -1162 -212 -1715 -484 -513 -253 -1026 -611
-1422 -993 l-62 -60 -108 31 c-208 60 -368 82 -594 82 -508 0 -883 -199 -1005
-534 -30 -84 -47 -214 -39 -301 24 -259 137 -405 399 -519 43 -19 76 -38 75
-42 -1 -5 -36 -38 -78 -73 -102 -85 -611 -598 -611 -616 0 -31 247 -184 412
-257 303 -132 550 -188 875 -195 371 -9 595 37 816 168 96 57 212 175 259 264
39 74 78 199 78 250 0 24 6 16 33 -46 97 -220 308 -420 540 -509 234 -91 545
-108 842 -47 l110 22 3 228 c1 139 -1 227 -7 227 -5 0 -56 -12 -113 -26 -294
-73 -557 -26 -712 129 -58 59 -115 154 -131 220 l-7 27 786 0 786 0 0 140 0
140 52 -41 c110 -87 258 -142 543 -204 374 -81 485 -117 546 -174 36 -35 39
-42 39 -94 0 -51 -4 -61 -35 -96 -73 -81 -215 -112 -418 -92 -254 24 -483 93
-730 219 -4 2 -6 -117 -5 -264 l3 -267 105 -40 c227 -85 496 -137 716 -137
138 0 229 11 349 42 357 93 620 346 643 616 l5 64 33 -62 c124 -233 374 -430
669 -529 186 -62 277 -75 530 -75 127 -1 251 3 278 7 l47 8 0 222 0 222 -135
-3 c-98 -3 -157 1 -217 13 -377 76 -636 364 -590 658 38 248 273 456 588 522
79 17 292 23 333 10 21 -6 21 -5 21 213 0 200 -2 221 -17 227 -34 14 -398 18
-500 6 -194 -24 -342 -66 -508 -146 -240 -115 -425 -294 -526 -509 -54 -116
-79 -219 -86 -358 l-6 -118 -41 44 c-124 130 -287 195 -726 291 -288 62 -379
98 -408 158 -30 63 38 147 152 188 93 33 297 38 433 10 86 -18 202 -54 276
-86 16 -7 17 6 15 225 l-3 233 -65 18 c-275 78 -647 81 -885 8 -171 -52 -315
-137 -408 -240 -66 -72 -124 -182 -139 -265 l-12 -60 -33 68 c-73 152 -189
287 -323 373 -351 227 -892 229 -1257 5 -280 -172 -466 -483 -489 -816 l-7
-94 -25 37 c-119 181 -350 302 -757 398 -443 104 -544 134 -613 185 -110 79
-61 219 98 282 45 18 75 22 170 21 129 0 212 -16 321 -63 l71 -30 101 92 c626
561 1402 1001 2212 1253 981 304 2074 366 3090 174 302 -57 612 -145 805 -228
49 -21 90 -35 90 -30 0 22 -301 204 -520 314 -470 236 -931 380 -1440 451
-110 16 -702 28 -820 18z m-1545 -2289 c38 -8 94 -27 123 -41 106 -52 201
-176 235 -306 l15 -58 -495 0 -495 0 7 33 c14 67 75 178 130 236 121 126 293
175 480 136z m-2614 -609 c79 -18 198 -46 264 -61 298 -68 439 -140 466 -237
21 -79 -37 -156 -144 -193 -77 -26 -306 -32 -431 -11 -166 28 -364 105 -509
196 l-48 31 48 62 c109 143 194 247 202 247 5 0 73 -15 152 -34z"/>
</g>
</svg>
